<svg width="48" height="48" viewBox="0 0 48 48" fill="none" xmlns="http://www.w3.org/2000/svg">
<path d="M24 48C37.2548 48 48 37.2548 48 24C48 10.7452 37.2548 0 24 0C10.7452 0 0 10.7452 0 24C0 37.2548 10.7452 48 24 48Z" fill="#F1F1F1"/>
<path d="M18.3509 20.7807C17.8618 21.2731 17.8022 22.0477 18.2102 22.6097C19.1702 23.9297 20.2328 25.1719 21.3881 26.3256C22.6775 27.6191 24.0786 28.7959 25.5758 29.8428C26.1377 30.2367 26.9024 30.1705 27.3881 29.6856L30.053 27.0207C30.7862 26.2875 31.9763 26.2875 32.7096 27.0207L37.3606 31.6717C38.0938 32.405 38.0938 33.595 37.3606 34.3283L36.1027 35.5863C34.2696 37.4384 31.6023 38.1982 29.0682 37.5891C26.7171 36.9659 24.4818 35.9678 22.4475 34.6346C20.5747 33.4478 18.8376 32.0608 17.2668 30.4967C15.8227 29.06 14.525 27.4826 13.3937 25.7877C12.149 23.9538 11.1634 21.9568 10.464 19.8539C9.60413 17.1733 10.3167 14.2371 12.3096 12.2483L13.7744 10.7587C14.5076 10.0254 15.6977 10.0254 16.431 10.7587L21.082 15.4097C21.8153 16.1429 21.8153 17.333 21.082 18.0663L18.3509 20.7807Z" fill="#3A70C1"/>
</svg>
